solid AssimpScene
 facet normal -1 0 0
  outer loop
  vertex 0 1 13
  vertex 0 1 0
  vertex 0 0 13
  endloop
 endfacet

 facet normal -1 0 0
  outer loop
  vertex 0 0 13
  vertex 0 1 0
  vertex 0 0 0
  endloop
 endfacet

 facet normal 0 0 1
  outer loop
  vertex 35 1 13
  vertex 0 1 13
  vertex 35 0 13
  endloop
 endfacet

 facet normal 0 0 1
  outer loop
  vertex 35 0 13
  vertex 0 1 13
  vertex 0 0 13
  endloop
 endfacet

 facet normal 1 0 0
  outer loop
  vertex 35 1 0
  vertex 35 1 13
  vertex 35 0 0
  endloop
 endfacet

 facet normal 1 0 0
  outer loop
  vertex 35 0 0
  vertex 35 1 13
  vertex 35 0 13
  endloop
 endfacet

 facet normal 0 0 -1
  outer loop
  vertex 0 1 0
  vertex 35 1 0
  vertex 0 0 0
  endloop
 endfacet

 facet normal 0 0 -1
  outer loop
  vertex 0 0 0
  vertex 35 1 0
  vertex 35 0 0
  endloop
 endfacet

 facet normal 0 1 0
  outer loop
  vertex 35 1 13
  vertex 35 1 0
  vertex 0 1 13
  endloop
 endfacet

 facet normal 0 1 0
  outer loop
  vertex 0 1 13
  vertex 35 1 0
  vertex 0 1 0
  endloop
 endfacet

 facet normal 0 -1 0
  outer loop
  vertex 35 0 0
  vertex 35 0 13
  vertex 0 0 0
  endloop
 endfacet

 facet normal 0 -1 0
  outer loop
  vertex 0 0 0
  vertex 35 0 13
  vertex 0 0 13
  endloop
 endfacet

endsolid AssimpScene
